<?xml version="1.0" encoding="UTF-8"?>
<!DOCTYPE svg PUBLIC "-//W3C//DTD SVG 1.1//EN" "http://www.w3.org/Graphics/SVG/1.1/DTD/svg11.dtd">
<!-- Creator: CorelDRAW 2018 (64-Bit) -->
<svg xmlns="http://www.w3.org/2000/svg" xml:space="preserve" width="78.1645mm" height="21.1049mm" version="1.1" style="shape-rendering:geometricPrecision; text-rendering:geometricPrecision; image-rendering:optimizeQuality; fill-rule:evenodd; clip-rule:evenodd"
viewBox="0 0 7816.46 2110.49"
 xmlns:xlink="http://www.w3.org/1999/xlink">
 <defs>
  <style type="text/css">
   <![CDATA[
    .fil1 {fill:#444444;fill-rule:nonzero}
    .fil0 {fill:url(#id0)}
   ]]>
  </style>
  <linearGradient id="id0" gradientUnits="userSpaceOnUse" x1="893.64" y1="2110.49" x2="893.64" y2="0.02">
   <stop offset="0" style="stop-opacity:1; stop-color:#050505"/>
   <stop offset="1" style="stop-opacity:1; stop-color:#D2D1D1"/>
  </linearGradient>
 </defs>
 <g id="Layer_x0020_1">
  <metadata id="CorelCorpID_0Corel-Layer"/>
  <g id="_2990946550160">
   <path class="fil0" d="M528.07 368.43c20.63,-162.27 180.24,-290.66 362.55,-290.11 187.23,0.57 336.77,130.1 361.03,290.1l-723.58 0.01zm-528.08 1614.77c17.97,105.46 89.26,127 204.08,126.77l1311.3 -0.02c120.04,0 199.62,11.76 249.19,-74.77 34.18,-59.67 19.7,-230.91 19.62,-310.85 -0.11,-107.53 -0.63,-215.25 -0.02,-322.76l-0.85 -895.97c-25,-188.47 -221.85,-129.8 -449.9,-137.56 -19.49,-61.47 -21.58,-91.09 -52.3,-146.35 -134.39,-241.79 -484.8,-294.76 -689.43,-114.39 -74.42,65.6 -114.02,135.25 -145.28,259.71 -181.92,20.35 -403.37,-63.19 -445.74,121.99l-0.67 1494.2zm1021.04 -1116.84c-40.48,45.18 -50.72,79.71 -142.62,81.85 16.18,-97.78 53.32,-173.21 165.75,-186.83 0.96,48.24 -10.44,68.76 -23.13,104.98zm169.92 563.64c-139.76,249.68 -181.11,118.08 -300.29,121.74 -72.8,2.23 -124.59,66.71 -192.02,7.54 -52.03,-45.64 -61.55,-75.07 -101.51,-135.92 -124.44,-279.87 0.52,-525.45 227.53,-443.24 69.85,25.3 61.02,20.84 128.87,-2.82 108.2,-37.74 188.4,-4.44 237.46,60.49 -38.78,47.48 -90.95,66.45 -85.27,171.29 4.5,82.99 49.72,123.24 106.86,158.25l-21.63 62.67z"/>
   <path class="fil1" d="M2278.19 1975.68c21.01,0 38.39,-6.06 52.13,-18.18 13.9,-12.21 20.84,-27.4 20.84,-45.75l0 -23.43 -68.69 4.53c-37.25,2.5 -55.84,16.4 -55.84,41.61 0,12.85 4.85,22.96 14.63,30.31 9.46,7.27 21.82,10.91 36.93,10.91zm-7.51 35.8c-25.14,0 -45.67,-6.87 -61.59,-20.61 -16.4,-13.9 -24.64,-32.4 -24.64,-55.44 0,-22.7 8.08,-40.56 24.16,-53.5 16.08,-12.93 39.03,-20.28 68.93,-21.98l73.62 -4.52 0 -23.2c0,-32.48 -19.31,-48.81 -57.78,-48.81 -32.4,0 -51.56,10.59 -57.54,31.76l-41.21 0c2.66,-20.37 13.25,-36.77 31.76,-49.22 18.26,-12.52 41.13,-18.75 68.37,-18.75 30.95,0 54.95,7.52 72,22.47 16.73,15.03 25.14,35.88 25.14,62.55l0 174.73 -38.87 0 0 -37.67 -3.8 0c-17.05,28.13 -43.24,42.19 -78.55,42.19zm320.83 -264.27c32.49,0 58.51,12.05 78.15,35.97 19.39,24 29.09,56.09 29.09,96.17 0,39.92 -9.78,71.84 -29.33,95.84 -19.64,24.17 -45.58,36.29 -77.91,36.29 -38.38,0 -64.98,-14.3 -79.84,-42.91l-3.72 0 0 123.65 -40.73 0 0 -340.48 38.79 0 0 42.59 3.8 0c8.24,-14.71 19.47,-26.18 33.86,-34.59 14.55,-8.32 30.47,-12.53 47.84,-12.53zm-9.69 227.58c23.35,0 41.61,-8.48 54.87,-25.37 13.25,-16.9 19.88,-40.25 19.88,-70.07 0,-29.82 -6.63,-53.18 -19.88,-70.07 -13.1,-16.89 -31.28,-25.37 -54.64,-25.37 -23.11,0 -41.37,8.56 -54.95,25.61 -13.57,17.22 -20.36,40.49 -20.36,69.83 0,29.17 6.79,52.36 20.36,69.58 13.41,17.21 31.68,25.86 54.72,25.86zm305.15 -227.58c32.49,0 58.51,12.05 78.15,35.97 19.39,24 29.09,56.09 29.09,96.17 0,39.92 -9.78,71.84 -29.33,95.84 -19.64,24.17 -45.58,36.29 -77.91,36.29 -38.38,0 -64.98,-14.3 -79.84,-42.91l-3.72 0 0 123.65 -40.73 0 0 -340.48 38.79 0 0 42.59 3.79 0c8.25,-14.71 19.48,-26.18 33.87,-34.59 14.54,-8.32 30.46,-12.53 47.84,-12.53zm-9.7 227.58c23.36,0 41.62,-8.48 54.88,-25.37 13.25,-16.9 19.88,-40.25 19.88,-70.07 0,-29.82 -6.63,-53.18 -19.88,-70.07 -13.1,-16.89 -31.28,-25.37 -54.64,-25.37 -23.11,0 -41.37,8.56 -54.95,25.61 -13.57,17.22 -20.36,40.49 -20.36,69.83 0,29.17 6.79,52.36 20.36,69.58 13.41,17.21 31.68,25.86 54.71,25.86zm183.21 -324.39l40.73 0 0 356.56 -40.73 0 0 -356.56zm221.59 132.78c-20.28,0 -37.01,6.87 -50.18,20.61 -13.1,13.73 -20.45,31.92 -21.98,54.46l140.61 0c-0.48,-22.54 -6.95,-40.73 -19.4,-54.46 -12.44,-13.74 -28.84,-20.61 -49.05,-20.61zm107.97 157.75c-6.14,22.06 -18.59,39.28 -37.42,51.56 -18.9,12.69 -42.26,18.99 -70.06,18.99 -35.32,0 -63.36,-11.96 -84.05,-35.8 -20.69,-23.68 -30.95,-55.68 -30.95,-96.09 0,-40.24 10.34,-72.41 31.19,-96.41 20.85,-23.92 48.81,-35.97 83.81,-35.97 34.43,0 61.5,11.48 81.22,34.35 19.71,22.87 29.57,54.23 29.57,93.99l0 15.6 -183.44 0 0 1.94c1.13,25.21 8.16,45.26 21.33,60.12 13.25,14.87 30.63,22.23 52.29,22.23 32.97,0 54.95,-11.48 65.86,-34.51l40.65 0zm282.69 34.75c21.01,0 38.39,-6.06 52.13,-18.18 13.9,-12.21 20.85,-27.4 20.85,-45.75l0 -23.43 -68.7 4.53c-37.25,2.5 -55.84,16.4 -55.84,41.61 0,12.85 4.85,22.96 14.63,30.31 9.46,7.27 21.82,10.91 36.93,10.91zm-7.51 35.8c-25.14,0 -45.66,-6.87 -61.58,-20.61 -16.41,-13.9 -24.65,-32.4 -24.65,-55.44 0,-22.7 8.08,-40.56 24.16,-53.5 16.09,-12.93 39.03,-20.28 68.93,-21.98l73.63 -4.52 0 -23.2c0,-32.48 -19.32,-48.81 -57.78,-48.81 -32.41,0 -51.56,10.59 -57.54,31.76l-41.22 0c2.66,-20.37 13.25,-36.77 31.76,-49.22 18.27,-12.52 41.13,-18.75 68.37,-18.75 30.95,0 54.96,7.52 72.01,22.47 16.72,15.03 25.13,35.88 25.13,62.55l0 174.73 -38.87 0 0 -37.67 -3.8 0c-17.05,28.13 -43.24,42.19 -78.55,42.19zm407.71 -4.52l-38.87 0 0 -40.01 -3.72 0c-13.42,29.66 -40.57,44.53 -81.46,44.53 -28.61,0 -50.68,-8.24 -66.35,-24.65 -15.44,-16.4 -23.19,-39.68 -23.19,-69.82l0 -165.27 40.73 0 0 155.33c0,44.77 20.04,67.24 60.12,67.24 22.63,0 40.25,-6.31 52.86,-19 12.77,-12.6 19.15,-30.14 19.15,-52.52l0 -151.05 40.73 0 0 255.22zm134.56 -318.9l0 63.68 59.15 0 0 34.11 -59.15 0 0 144.41c0,14.95 2.98,25.86 8.96,32.65 5.98,6.79 15.6,10.19 28.86,10.19 5.57,0 11.71,-0.33 18.5,-0.98l0 34.35c-8.97,1.62 -16.81,2.34 -23.44,2.34 -26.34,0 -45.25,-5.25 -56.56,-15.83 -11.4,-10.59 -17.06,-28.05 -17.06,-52.29l0 -154.84 -42.91 0 0 -34.11 42.91 0 0 -63.68 40.74 0zm120.73 -37.66l40.74 0 0 141.58 3.79 0c13.58,-29.81 40.57,-44.77 80.98,-44.77 28.85,0 51.24,8.33 67,24.9 15.59,16.4 23.43,39.6 23.43,69.58l0 165.27 -40.73 0 0 -155.33c0,-45.18 -20.45,-67.72 -61.34,-67.72 -22.54,0 -40.48,6.62 -53.74,19.88 -12.93,12.92 -19.39,30.3 -19.39,52.12l0 151.05 -40.74 0 0 -356.56zm395.19 324.39c24.08,0 42.75,-8.4 55.84,-25.13 13.09,-16.57 19.64,-40.01 19.64,-70.31 0,-30.31 -6.55,-53.83 -19.64,-70.55 -13.09,-16.57 -31.76,-24.89 -55.84,-24.89 -24.17,0 -42.84,8.32 -55.92,24.89 -13.1,16.72 -19.64,40.24 -19.64,70.55 0,30.3 6.54,53.74 19.64,70.31 13.08,16.73 31.75,25.13 55.92,25.13zm0 36.69c-36.37,0 -65.06,-11.8 -86.23,-35.32 -21.02,-23.68 -31.44,-55.92 -31.44,-96.81 0,-41.06 10.42,-73.3 31.44,-96.82 21.01,-23.51 49.7,-35.32 86.23,-35.32 36.45,0 65.14,11.81 86.15,35.32 21.01,23.52 31.51,55.76 31.51,96.82 0,40.89 -10.5,73.13 -31.51,96.81 -21.18,23.52 -49.87,35.32 -86.15,35.32zm181.59 -259.74l38.79 0 0 37.82 3.8 0c3.8,-12.44 12.29,-22.62 25.54,-30.46 13.25,-7.93 28.37,-11.89 45.25,-11.89 7.76,0 14.55,0.41 20.37,1.22l0 40.73c-5.5,-1.62 -14.22,-2.43 -26.02,-2.43 -19.48,0 -35.48,5.9 -48.09,17.54 -12.6,11.72 -18.91,26.51 -18.91,44.53l0 158.16 -40.73 0 0 -255.22zm186.77 0l40.73 0 0 255.22 -40.73 0 0 -255.22zm20.36 -51.88c-7.68,0 -14.38,-2.75 -20.12,-8.25 -5.5,-5.73 -8.24,-12.44 -8.24,-20.12 0,-7.92 2.74,-14.63 8.24,-20.12 5.74,-5.58 12.44,-8.33 20.12,-8.33 7.92,0 14.63,2.75 20.12,8.33 5.58,5.49 8.33,12.2 8.33,20.12 0,7.68 -2.75,14.39 -8.33,20.12 -5.49,5.5 -12.2,8.25 -20.12,8.25zm92.13 121.7c0,-21.17 9.13,-38.79 27.24,-53.01 18.18,-14.22 40.81,-21.34 67.96,-21.34 26.67,0 48.74,6.15 66.11,18.51 17.29,12.28 27.32,28.93 30.06,49.95l-40.24 0c-2.91,-10.43 -9.06,-18.67 -18.51,-24.65 -9.94,-6.14 -22.47,-9.21 -37.66,-9.21 -15.27,0 -28.04,3.47 -38.31,10.42 -10.42,7.27 -15.67,16.48 -15.67,27.64 0,16.65 14.79,28.53 44.28,35.8l39.36 9.45c24.24,5.82 42.19,14.23 53.66,25.14 11.72,11.15 17.54,25.86 17.54,44.04 0,22.55 -9.78,41.06 -29.34,55.6 -19.23,14.39 -43.56,21.58 -72.89,21.58 -28.45,0 -51.73,-6.3 -69.91,-18.99 -18.1,-12.61 -28.28,-29.5 -30.47,-50.67l41.86 0c7.44,23.51 27.41,35.32 59.89,35.32 17.21,0 31.36,-3.72 42.43,-11.16 10.99,-7.43 16.57,-16.97 16.57,-28.61 0,-17.37 -13.5,-29.41 -40.49,-36.04l-43.8 -10.67c-24.17,-5.81 -41.79,-14.14 -52.86,-25.05 -11.15,-11.07 -16.81,-25.7 -16.81,-44.05zm361.57 -38.38c-20.29,0 -37.02,6.87 -50.19,20.61 -13.09,13.73 -20.45,31.92 -21.98,54.46l140.61 0c-0.48,-22.54 -6.94,-40.73 -19.39,-54.46 -12.44,-13.74 -28.85,-20.61 -49.05,-20.61zm107.96 157.75c-6.13,22.06 -18.58,39.28 -37.41,51.56 -18.91,12.69 -42.27,18.99 -70.07,18.99 -35.31,0 -63.36,-11.96 -84.04,-35.8 -20.69,-23.68 -30.96,-55.68 -30.96,-96.09 0,-40.24 10.35,-72.41 31.19,-96.41 20.86,-23.92 48.82,-35.97 83.81,-35.97 34.43,0 61.5,11.48 81.22,34.35 19.72,22.87 29.58,54.23 29.58,93.99l0 15.6 -183.45 0 0 1.94c1.13,25.21 8.16,45.26 21.33,60.12 13.26,14.87 30.63,22.23 52.29,22.23 32.97,0 54.95,-11.48 65.86,-34.51l40.65 0zm161.8 70.55c-32.73,0 -58.75,-12.04 -78.15,-36.04 -19.39,-24 -29.09,-56.01 -29.09,-96.09 0,-39.93 9.77,-72.01 29.33,-96.17 19.4,-23.92 45.34,-35.97 77.91,-35.97 17.78,0 33.78,3.96 47.76,11.89 14.22,8 24.97,18.99 32.25,32.88l3.55 0 0 -141.58 40.73 0 0 356.56 -38.87 0 0 -40.73 -3.8 0c-17.05,30.14 -44.2,45.25 -81.62,45.25zm9.46 -227.57c-23.2,0 -41.46,8.48 -54.72,25.37 -13.25,17.05 -19.88,40.41 -19.88,70.07 0,29.82 6.63,53.17 19.88,70.07 13.1,16.89 31.36,25.37 54.72,25.37 23.19,0 41.53,-8.56 54.95,-25.62 13.41,-17.05 20.12,-40.32 20.12,-69.82 0,-29.18 -6.71,-52.45 -20.12,-69.58 -13.58,-17.21 -31.92,-25.86 -54.95,-25.86zm330.77 -32.17l38.79 0 0 37.82 3.8 0c3.8,-12.44 12.28,-22.62 25.54,-30.46 13.25,-7.93 28.37,-11.89 45.25,-11.89 7.76,0 14.55,0.41 20.37,1.22l0 40.73c-5.5,-1.62 -14.22,-2.43 -26.02,-2.43 -19.48,0 -35.48,5.9 -48.09,17.54 -12.6,11.72 -18.91,26.51 -18.91,44.53l0 158.16 -40.73 0 0 -255.22zm279.3 31.44c-20.28,0 -37.01,6.87 -50.19,20.61 -13.09,13.73 -20.44,31.92 -21.98,54.46l140.62 0c-0.49,-22.54 -6.95,-40.73 -19.4,-54.46 -12.44,-13.74 -28.84,-20.61 -49.05,-20.61zm107.97 157.75c-6.14,22.06 -18.59,39.28 -37.42,51.56 -18.91,12.69 -42.26,18.99 -70.07,18.99 -35.31,0 -63.35,-11.96 -84.04,-35.8 -20.69,-23.68 -30.95,-55.68 -30.95,-96.09 0,-40.24 10.34,-72.41 31.19,-96.41 20.85,-23.92 48.81,-35.97 83.8,-35.97 34.43,0 61.5,11.48 81.23,34.35 19.71,22.87 29.57,54.23 29.57,93.99l0 15.6 -183.45 0 0 1.94c1.13,25.21 8.17,45.26 21.34,60.12 13.25,14.87 30.63,22.23 52.29,22.23 32.97,0 54.95,-11.48 65.86,-34.51l40.65 0zm61.34 -119.37c0,-21.17 9.13,-38.79 27.23,-53.01 18.19,-14.22 40.81,-21.34 67.97,-21.34 26.67,0 48.73,6.15 66.11,18.51 17.29,12.28 27.31,28.93 30.06,49.95l-40.25 0c-2.91,-10.43 -9.05,-18.67 -18.5,-24.65 -9.95,-6.14 -22.47,-9.21 -37.66,-9.21 -15.28,0 -28.04,3.47 -38.31,10.42 -10.42,7.27 -15.68,16.48 -15.68,27.64 0,16.65 14.79,28.53 44.29,35.8l39.36 9.45c24.24,5.82 42.18,14.23 53.66,25.14 11.72,11.15 17.53,25.86 17.53,44.04 0,22.55 -9.77,41.06 -29.33,55.6 -19.23,14.39 -43.56,21.58 -72.9,21.58 -28.44,0 -51.72,-6.3 -69.9,-18.99 -18.1,-12.61 -28.29,-29.5 -30.47,-50.67l41.86 0c7.44,23.51 27.4,35.32 59.89,35.32 17.21,0 31.35,-3.72 42.42,-11.16 11,-7.43 16.57,-16.97 16.57,-28.61 0,-17.37 -13.49,-29.41 -40.49,-36.04l-43.8 -10.67c-24.16,-5.81 -41.78,-14.14 -52.85,-25.05 -11.16,-11.07 -16.81,-25.7 -16.81,-44.05zm361.56 -38.38c-20.28,0 -37.01,6.87 -50.18,20.61 -13.1,13.73 -20.45,31.92 -21.98,54.46l140.61 0c-0.48,-22.54 -6.94,-40.73 -19.39,-54.46 -12.45,-13.74 -28.85,-20.61 -49.06,-20.61zm107.97 157.75c-6.14,22.06 -18.59,39.28 -37.42,51.56 -18.9,12.69 -42.26,18.99 -70.06,18.99 -35.32,0 -63.36,-11.96 -84.05,-35.8 -20.69,-23.68 -30.95,-55.68 -30.95,-96.09 0,-40.24 10.35,-72.41 31.19,-96.41 20.85,-23.92 48.81,-35.97 83.81,-35.97 34.43,0 61.5,11.48 81.22,34.35 19.72,22.87 29.57,54.23 29.57,93.99l0 15.6 -183.44 0 0 1.94c1.13,25.21 8.16,45.26 21.33,60.12 13.25,14.87 30.63,22.23 52.29,22.23 32.97,0 54.95,-11.48 65.86,-34.51l40.65 0zm69.66 -290.53l40.74 0 0 356.56 -40.74 0 0 -356.56zm122.2 0l40.73 0 0 356.56 -40.73 0 0 -356.56zm221.59 132.78c-20.28,0 -37.01,6.87 -50.18,20.61 -13.1,13.73 -20.45,31.92 -21.99,54.46l140.62 0c-0.48,-22.54 -6.95,-40.73 -19.4,-54.46 -12.44,-13.74 -28.84,-20.61 -49.05,-20.61zm107.97 157.75c-6.14,22.06 -18.59,39.28 -37.42,51.56 -18.91,12.69 -42.26,18.99 -70.06,18.99 -35.32,0 -63.36,-11.96 -84.05,-35.8 -20.69,-23.68 -30.95,-55.68 -30.95,-96.09 0,-40.24 10.34,-72.41 31.19,-96.41 20.85,-23.92 48.81,-35.97 83.81,-35.97 34.43,0 61.5,11.48 81.22,34.35 19.71,22.87 29.57,54.23 29.57,93.99l0 15.6 -183.45 0 0 1.94c1.13,25.21 8.17,45.26 21.34,60.12 13.25,14.87 30.63,22.23 52.29,22.23 32.97,0 54.95,-11.48 65.86,-34.51l40.65 0zm67.32 -189.19l38.79 0 0 37.82 3.8 0c3.8,-12.44 12.28,-22.62 25.54,-30.46 13.25,-7.93 28.37,-11.89 45.25,-11.89 7.76,0 14.55,0.41 20.37,1.22l0 40.73c-5.5,-1.62 -14.22,-2.43 -26.02,-2.43 -19.48,0 -35.48,5.9 -48.09,17.54 -12.6,11.72 -18.91,26.51 -18.91,44.53l0 158.16 -40.73 0 0 -255.22z"/>
   <path class="fil1" d="M2723.16 1109.19l-319.09 0 -74.44 221.69 -156.88 0 307.61 -867.04 174.31 0 308.22 867.04 -166.52 0 -73.21 -221.69zm-283 -122.63l246.91 0 -117.71 -357.44 -10.26 0 -118.94 357.44zm1014.29 -323.81c83.25,0 149.08,30.35 197.48,90.85 49.01,60.29 73.41,143.34 73.41,248.55 0,105 -23.99,187.64 -72.18,248.14 -48.4,60.9 -114.02,91.46 -197.07,91.46 -98.03,0 -164.88,-36.92 -200.57,-110.54l-10.25 0 0 309.86 -149.09 0 0 -867.45 143.76 0 0 108.69 10.05 0c18.86,-37.12 46.35,-66.44 82.44,-87.77 36.5,-21.12 77.1,-31.79 122.02,-31.79zm-46.96 552.26c51.67,0 92.07,-18.86 121.4,-56.6 28.7,-37.53 43.27,-89.61 43.27,-156.26 0,-66.45 -14.77,-118.53 -43.89,-156.06 -28.91,-37.74 -68.9,-56.6 -120.17,-56.6 -50.86,0 -91.05,19.07 -120.79,57.21 -29.53,37.94 -44.7,89.82 -45.11,155.45 0.41,65.83 15.58,117.71 45.11,155.65 29.33,38.14 69.32,57.21 120.18,57.21zm825.61 -552.26c83.26,0 149.09,30.35 197.48,90.85 49.02,60.29 73.42,143.34 73.42,248.55 0,105 -23.99,187.64 -72.18,248.14 -48.4,60.9 -114.03,91.46 -197.08,91.46 -98.03,0 -164.88,-36.92 -200.56,-110.54l-10.25 0 0 309.86 -149.09 0 0 -867.45 143.76 0 0 108.69 10.05 0c18.86,-37.12 46.34,-66.44 82.43,-87.77 36.51,-21.12 77.11,-31.79 122.02,-31.79zm-46.96 552.26c51.68,0 92.07,-18.86 121.4,-56.6 28.71,-37.53 43.27,-89.61 43.27,-156.26 0,-66.45 -14.76,-118.53 -43.88,-156.06 -28.92,-37.74 -68.91,-56.6 -120.18,-56.6 -50.86,0 -91.05,19.07 -120.78,57.21 -29.54,37.94 -44.71,89.82 -45.12,155.45 0.41,65.83 15.58,117.71 45.12,155.65 29.32,38.14 69.31,57.21 120.17,57.21zm588.96 -119.55c4.72,38.76 25.02,69.52 60.5,92.48 35.68,23.18 81,34.86 135.96,34.86 51.27,0 93.31,-11.89 126.12,-35.47 33.22,-23.18 49.84,-53.11 49.84,-89.62 0,-31.17 -12.72,-56.6 -37.94,-76.29 -24.82,-19.68 -65.01,-35.88 -120.79,-48.6l-112.18 -25.84c-154.21,-34.86 -231.32,-115.86 -231.32,-242.8 0,-78.75 29.33,-142.12 88.18,-189.69 59.27,-48.19 137.4,-72.19 234.4,-72.19 90.85,0 166.11,23.58 225.79,70.96 59.67,47.16 91.46,108.07 94.94,182.51l-148.27 0c-5.32,-37.94 -23.37,-68.29 -54.75,-90.64 -31.17,-22.36 -70.75,-33.63 -118.32,-33.63 -50.04,0 -90.03,11.07 -120.18,33.01 -30.35,22.36 -45.73,52.09 -45.73,89.01 0,29.11 11.9,52.7 35.48,70.75 23.59,18.45 62.34,33.83 116.07,46.34l99.66 22.77c87.77,19.68 151.35,48.8 191.13,87.77 39.17,38.75 58.86,91.25 58.86,157.49 0,84.49 -30.56,151.14 -91.47,199.94 -61.1,49.22 -144.36,73.83 -249.16,73.83 -99.46,0 -179.64,-23.17 -240.96,-69.52 -60.9,-46.55 -93.3,-109.09 -97.4,-187.43l151.54 0zm881.81 -578.72l0 160.99 144.37 0 0 119.14 -144.37 0 0 322.58c0,62.34 30.15,93.72 90.24,93.72 13.53,0 29.93,-1.03 49.21,-3.08l0 116.48c-23.99,4.92 -49.63,7.38 -76.9,7.38 -75.26,0 -129.4,-13.94 -162.21,-41.62 -32.4,-27.49 -48.6,-73.21 -48.6,-136.79l0 -358.67 -107.05 0 0 -119.14 107.05 0 0 -160.99 148.26 0zm567.23 702.38c52.09,0 92.08,-19.08 120.17,-57.02 28.51,-37.73 42.66,-91.05 42.66,-159.95 0,-68.49 -14.15,-121.61 -42.66,-159.75 -28.5,-37.94 -68.49,-57.01 -120.17,-57.01 -52.09,0 -92.28,19.07 -120.79,57.01 -28.29,38.14 -42.65,91.26 -42.65,159.75 0,68.9 14.36,122.22 42.65,159.95 28.51,37.94 68.7,57.02 120.79,57.02zm0 124.88c-98.43,0 -175.75,-30.14 -231.93,-90.64 -55.99,-60.91 -84.08,-144.57 -84.08,-251.21 0,-105.61 28.3,-189.08 84.69,-250.39 56.6,-60.91 133.71,-91.47 231.32,-91.47 98.23,0 175.34,30.56 231.32,91.47 56.6,60.9 84.7,144.36 84.7,250.39 0,106.64 -28.1,190.3 -84.08,251.21 -56.4,60.5 -133.71,90.64 -231.94,90.64zm466.13 -670.38l143.76 0 0 102.13 10.05 0c9.23,-32.81 29.73,-59.88 61.31,-81.21 32.4,-21.12 69.52,-31.79 111.15,-31.79 25.64,0 46.14,2.26 61.32,6.57l0 138.21c-15.18,-5.53 -40.4,-8.41 -75.67,-8.41 -47.99,0 -87.16,13.95 -117.1,41.43 -30.56,28.1 -45.73,65.01 -45.73,110.54l0 379.79 -149.09 0 0 -657.26zm768.41 105.21c-44.5,0 -81.01,14.55 -109.93,43.68 -28.91,29.32 -44.9,68.08 -47.98,116.07l309.25 0c-1.44,-48.81 -16,-87.78 -43.07,-116.49 -27.27,-28.91 -63.36,-43.26 -108.27,-43.26zm293.86 371.18c-14.15,60.08 -46.96,107.45 -98.64,141.9 -52.08,34.66 -116.48,52.09 -193.38,52.09 -96.59,0 -172.47,-30.14 -227.63,-90.64 -54.96,-60.09 -82.44,-142.93 -82.44,-248.75 0,-105.61 27.69,-189.69 83.06,-251.63 55.16,-61.72 130.42,-92.69 225.78,-92.69 93.72,0 167.14,29.53 220.45,88.39 52.91,58.45 79.36,139.65 79.36,243.42l0 47.98 -458.95 0 0 7.8c1.85,54.96 17.64,98.23 46.76,129.81 29.74,31.99 68.91,47.99 117.71,47.99 75.47,0 124.27,-25.23 146.63,-75.67l141.29 0z"/>
  </g>
 </g>
</svg>
