<?xml version="1.0" standalone="no"?>
<!DOCTYPE svg PUBLIC "-//W3C//DTD SVG 20010904//EN"
 "http://www.w3.org/TR/2001/REC-SVG-20010904/DTD/svg10.dtd">
<svg version="1.0" xmlns="http://www.w3.org/2000/svg"
 width="1280.000000pt" height="396.000000pt" viewBox="0 0 1280.000000 396.000000"
 preserveAspectRatio="xMidYMid meet">
<metadata>
Created by potrace 1.16, written by Peter Selinger 2001-2019
</metadata>
<g transform="translate(0.000000,396.000000) scale(0.100000,-0.100000)"
fill="#000000" stroke="none">
<path d="M1850 3953 c-119 -18 -227 -73 -327 -166 -118 -111 -173 -203 -212
-358 -25 -99 -37 -214 -23 -223 21 -13 148 15 217 48 135 63 256 190 329 347
45 94 65 172 73 277 7 90 10 86 -57 75z"/>
<path d="M3730 3737 c-48 -15 -126 -95 -139 -143 -34 -123 18 -235 131 -284
158 -68 325 23 345 188 16 139 -94 253 -242 251 -33 -1 -76 -6 -95 -12z"/>
<path d="M5200 3656 c-271 -49 -455 -147 -591 -316 -49 -60 -66 -97 -90 -188
-14 -52 -20 -109 -20 -175 2 -342 172 -534 699 -789 230 -111 319 -165 398
-240 69 -65 89 -117 88 -223 -1 -187 -107 -289 -342 -330 -167 -29 -322 -14
-525 51 -124 40 -209 79 -270 124 -23 17 -44 30 -49 30 -13 0 -7 -418 6 -428
68 -53 380 -120 596 -129 459 -19 765 92 927 336 83 124 115 282 94 454 -34
277 -263 502 -730 718 -281 130 -373 196 -428 308 -22 43 -27 68 -26 120 2
217 196 341 531 341 198 0 360 -38 490 -115 l57 -33 3 200 c1 127 -1 205 -8
213 -13 16 -98 43 -197 61 -110 21 -513 28 -613 10z"/>
<path d="M6755 3376 l-180 -52 -7 -49 c-3 -28 -7 -121 -7 -207 l-1 -158 -122
-1 c-68 -1 -134 -2 -148 -3 l-25 -1 -3 -157 c-1 -87 -1 -159 0 -160 2 0 70 -4
152 -7 l148 -6 -1 -480 c-2 -553 6 -693 45 -790 75 -187 256 -275 539 -262
116 6 196 21 243 46 21 11 22 17 22 166 0 85 -1 155 -3 155 -2 0 -23 -10 -47
-21 -98 -47 -251 -30 -316 35 -61 61 -63 82 -64 629 0 271 -1 501 0 512 0 19
6 20 215 18 l215 -3 -2 163 -3 162 -213 0 -212 0 0 263 0 262 -22 -1 c-13 0
-104 -24 -203 -53z"/>
<path d="M1766 3224 c-39 -8 -129 -39 -200 -67 -126 -49 -135 -51 -231 -52
-94 0 -105 2 -190 39 -181 77 -196 80 -355 80 -130 0 -153 -3 -225 -27 -190
-64 -341 -203 -437 -404 -137 -285 -154 -657 -47 -1008 134 -438 390 -830 614
-941 76 -38 83 -39 180 -39 88 0 108 4 165 29 197 86 233 98 309 103 97 6 171
-11 330 -76 233 -96 312 -89 472 39 138 111 268 296 376 536 101 225 100 214
22 255 -98 51 -223 182 -277 289 -59 119 -76 193 -76 325 0 173 45 306 155
451 28 38 78 94 112 124 72 67 72 65 -36 166 -89 82 -159 126 -259 161 -94 33
-292 42 -402 17z"/>
<path d="M8420 2934 c-448 -80 -701 -327 -776 -758 -20 -110 -14 -353 10 -459
58 -254 232 -479 454 -587 212 -103 565 -119 810 -36 250 86 424 254 517 501
78 206 91 480 34 715 -59 245 -226 452 -444 551 -125 56 -201 71 -400 74 -99
2 -191 1 -205 -1z m363 -353 c73 -29 151 -91 198 -159 97 -139 133 -425 83
-667 -39 -187 -152 -322 -312 -372 -85 -26 -277 -24 -353 4 -163 60 -295 221
-334 408 -19 91 -19 290 0 380 31 147 138 311 242 372 88 51 146 63 288 60
106 -3 141 -8 188 -26z"/>
<path d="M11855 2933 c-45 -6 -164 -43 -215 -66 -221 -101 -409 -335 -475
-593 -51 -203 -45 -472 15 -669 66 -212 219 -397 404 -484 106 -51 214 -73
381 -78 238 -8 456 32 615 112 l70 35 0 160 0 160 -77 -39 c-185 -93 -273
-115 -463 -115 -126 0 -154 3 -215 23 -38 13 -88 34 -111 48 -57 32 -146 129
-178 191 -30 60 -56 159 -56 219 l0 42 618 0 617 0 3 98 c4 121 -12 287 -38
387 -43 168 -102 277 -208 384 -59 60 -90 82 -165 117 -120 57 -214 75 -369
74 -68 -1 -136 -4 -153 -6z m317 -326 c128 -63 226 -234 228 -399 l0 -38 -426
0 -426 0 6 38 c15 83 63 201 113 274 21 31 91 86 143 113 69 36 113 45 210 42
81 -2 104 -7 152 -30z"/>
<path d="M10680 2907 c-90 -36 -113 -52 -178 -122 -45 -47 -76 -95 -112 -168
-57 -117 -53 -125 -51 113 1 85 -2 161 -7 168 -7 10 -51 13 -203 10 l-194 -3
-3 -913 -2 -912 202 2 203 3 5 520 c6 578 5 561 79 719 45 97 111 168 191 205
72 34 229 42 300 16 89 -32 80 -50 80 159 l0 186 -27 17 c-21 14 -51 19 -128
20 -84 2 -109 -1 -155 -20z"/>
<path d="M3616 2903 c-3 -4 -6 -415 -6 -915 l0 -908 205 0 205 0 -2 913 -3
912 -196 2 c-108 1 -200 -1 -203 -4z"/>
</g>
</svg>
